<svg display="none" xmlns="http://www.w3.org/2000/svg">
<symbol id="svg-user" viewBox="0 0 20 20">
<g>
<path d="M10.0014 0C7.14422 0 4.80863 2.33559 4.80863 5.19275C4.80863 8.04991 7.14422 10.3855 10.0014 10.3855C12.8585 10.3855 15.1941 8.04991 15.1941 5.19275C15.1941 2.33559 12.8585 0 10.0014 0Z" />
<path d="M18.9132 14.535C18.7771 14.1949 18.5957 13.8774 18.3917 13.5826C17.3486 12.0407 15.7386 11.0203 13.9246 10.7708C13.6978 10.7482 13.4484 10.7935 13.267 10.9296C12.3146 11.6325 11.1808 11.9953 10.0016 11.9953C8.82248 11.9953 7.68872 11.6325 6.73633 10.9296C6.55491 10.7935 6.30547 10.7255 6.07873 10.7708C4.26467 11.0203 2.63203 12.0407 1.61163 13.5826C1.40755 13.8774 1.22613 14.2176 1.09011 14.535C1.02209 14.6711 1.04475 14.8298 1.11276 14.9659C1.29418 15.2833 1.52092 15.6008 1.725 15.8729C2.04245 16.3038 2.3826 16.6892 2.7681 17.052C3.08555 17.3695 3.44835 17.6643 3.8112 17.9591C5.60256 19.297 7.75677 19.9999 9.97899 19.9999C12.2012 19.9999 14.3554 19.2969 16.1468 17.9591C16.5096 17.687 16.8724 17.3695 17.1899 17.052C17.5527 16.6892 17.9155 16.3037 18.233 15.8729C18.4597 15.5781 18.6638 15.2833 18.8452 14.9659C18.9585 14.8298 18.9812 14.6711 18.9132 14.535Z" />
</g>
</symbol>
<symbol id="svg-password" viewBox="0 0 20 20">
<g >
<path d="M15.625 7.5H15V5C15 2.2425 12.7575 0 9.99999 0C7.24249 0 4.99999 2.2425 4.99999 5V7.5H4.37499C3.34166 7.5 2.49999 8.34083 2.49999 9.375V18.125C2.49999 19.1592 3.34166 20 4.37499 20H15.625C16.6583 20 17.5 19.1592 17.5 18.125V9.375C17.5 8.34083 16.6583 7.5 15.625 7.5ZM6.66666 5C6.66666 3.16167 8.16166 1.66667 9.99999 1.66667C11.8383 1.66667 13.3333 3.16167 13.3333 5V7.5H6.66666V5ZM10.8333 13.935V15.8333C10.8333 16.2933 10.4608 16.6667 9.99999 16.6667C9.53916 16.6667 9.16666 16.2933 9.16666 15.8333V13.935C8.67083 13.6458 8.33333 13.1142 8.33333 12.5C8.33333 11.5808 9.08083 10.8333 9.99999 10.8333C10.9192 10.8333 11.6667 11.5808 11.6667 12.5C11.6667 13.1142 11.3292 13.6458 10.8333 13.935Z" />
</g>
<symbol id="svg-email" viewBox="0 0 18 15">

<g>
  <path d="M15.937 14.6252C16.3304 14.6252 16.6713 14.4953 16.961 14.2389L12.003 9.28063C11.8841 9.36581 11.7688 9.44864 11.6598 9.52741C11.2888 9.80078 10.9877 10.0141 10.7564 10.167C10.5252 10.3202 10.2176 10.4763 9.8336 10.6357C9.44935 10.7954 9.09137 10.8749 8.75928 10.8749H8.74956H8.73984C8.40773 10.8749 8.04975 10.7954 7.66552 10.6357C7.2813 10.4763 6.97368 10.3202 6.7427 10.167C6.51149 10.0141 6.21051 9.80081 5.83929 9.52741C5.73584 9.45157 5.62111 9.36835 5.49707 9.2793L0.538086 14.2389C0.827817 14.4953 1.16889 14.6252 1.56223 14.6252H15.937Z"  />
  <path d="M0.986433 6.15831C0.615429 5.91096 0.286427 5.62768 0 5.30859V12.8521L4.36999 8.48213C3.49574 7.87179 2.36932 7.09807 0.986433 6.15831Z"  />
  <path d="M16.5237 6.15831C15.1936 7.05861 14.0631 7.83366 13.1321 8.48388L17.5003 12.8523V5.30859C17.2202 5.62126 16.8948 5.90436 16.5237 6.15831Z"  />
  <path d="M15.9376 0.875H1.56277C1.06127 0.875 0.675717 1.04435 0.405621 1.38269C0.135303 1.72119 0.000366211 2.14452 0.000366211 2.65221C0.000366211 3.0623 0.179435 3.50663 0.537413 3.98535C0.895391 4.46387 1.27631 4.83973 1.67997 5.11313C1.90127 5.26948 2.56861 5.73342 3.68201 6.50479C4.28304 6.92129 4.80573 7.28432 5.25489 7.5976C5.63775 7.86436 5.96793 8.09537 6.24053 8.28709C6.27183 8.30904 6.32104 8.34424 6.38637 8.39095C6.45674 8.4415 6.5458 8.50565 6.65567 8.58498C6.86724 8.738 7.04301 8.86169 7.18299 8.95618C7.32279 9.0507 7.49217 9.15628 7.69087 9.27352C7.88942 9.3906 8.07668 9.47864 8.25245 9.5372C8.42824 9.59572 8.59098 9.62508 8.74069 9.62508H8.75041H8.76014C8.90982 9.62508 9.07259 9.59572 9.24841 9.5372C9.42415 9.47864 9.61125 9.39079 9.80996 9.27352C10.0085 9.15628 10.1776 9.05048 10.3179 8.95618C10.4579 8.86169 10.6336 8.73803 10.8452 8.58498C10.9549 8.50565 11.0439 8.44147 11.1143 8.39111C11.1797 8.34421 11.2288 8.30923 11.2603 8.28709C11.4727 8.13931 11.8036 7.90925 12.2486 7.6003C13.0582 7.03777 14.2505 6.20982 15.8306 5.11313C16.3059 4.78121 16.7029 4.38066 17.022 3.91205C17.3405 3.44344 17.5002 2.95189 17.5002 2.43756C17.5002 2.00784 17.3454 1.64014 17.0364 1.33389C16.727 1.02802 16.3607 0.875 15.9376 0.875Z" />

</g>
<symbol>
</svg>