<svg width="18" height="15" viewBox="0 0 18 15" fill="none" xmlns="http://www.w3.org/2000/svg">
<path d="M15.937 14.6252C16.3304 14.6252 16.6713 14.4953 16.961 14.2389L12.003 9.28063C11.8841 9.36581 11.7688 9.44864 11.6598 9.52741C11.2888 9.80078 10.9877 10.0141 10.7564 10.167C10.5252 10.3202 10.2176 10.4763 9.8336 10.6357C9.44935 10.7954 9.09137 10.8749 8.75928 10.8749H8.74956H8.73984C8.40773 10.8749 8.04975 10.7954 7.66552 10.6357C7.2813 10.4763 6.97368 10.3202 6.7427 10.167C6.51149 10.0141 6.21051 9.80081 5.83929 9.52741C5.73584 9.45157 5.62111 9.36835 5.49707 9.2793L0.538086 14.2389C0.827817 14.4953 1.16889 14.6252 1.56223 14.6252H15.937Z" fill="#686868"/>
<path d="M0.986433 6.15831C0.615429 5.91096 0.286427 5.62768 0 5.30859V12.8521L4.36999 8.48213C3.49574 7.87179 2.36932 7.09807 0.986433 6.15831Z" fill="#686868"/>
<path d="M16.5237 6.15831C15.1936 7.05861 14.0631 7.83366 13.1321 8.48388L17.5003 12.8523V5.30859C17.2202 5.62126 16.8948 5.90436 16.5237 6.15831Z" fill="#686868"/>
<path d="M15.9376 0.875H1.56277C1.06127 0.875 0.675717 1.04435 0.405621 1.38269C0.135303 1.72119 0.000366211 2.14452 0.000366211 2.65221C0.000366211 3.0623 0.179435 3.50663 0.537413 3.98535C0.895391 4.46387 1.27631 4.83973 1.67997 5.11313C1.90127 5.26948 2.56861 5.73342 3.68201 6.50479C4.28304 6.92129 4.80573 7.28432 5.25489 7.5976C5.63775 7.86436 5.96793 8.09537 6.24053 8.28709C6.27183 8.30904 6.32104 8.34424 6.38637 8.39095C6.45674 8.4415 6.5458 8.50565 6.65567 8.58498C6.86724 8.738 7.04301 8.86169 7.18299 8.95618C7.32279 9.0507 7.49217 9.15628 7.69087 9.27352C7.88942 9.3906 8.07668 9.47864 8.25245 9.5372C8.42824 9.59572 8.59098 9.62508 8.74069 9.62508H8.75041H8.76014C8.90982 9.62508 9.07259 9.59572 9.24841 9.5372C9.42415 9.47864 9.61125 9.39079 9.80996 9.27352C10.0085 9.15628 10.1776 9.05048 10.3179 8.95618C10.4579 8.86169 10.6336 8.73803 10.8452 8.58498C10.9549 8.50565 11.0439 8.44147 11.1143 8.39111C11.1797 8.34421 11.2288 8.30923 11.2603 8.28709C11.4727 8.13931 11.8036 7.90925 12.2486 7.6003C13.0582 7.03777 14.2505 6.20982 15.8306 5.11313C16.3059 4.78121 16.7029 4.38066 17.022 3.91205C17.3405 3.44344 17.5002 2.95189 17.5002 2.43756C17.5002 2.00784 17.3454 1.64014 17.0364 1.33389C16.727 1.02802 16.3607 0.875 15.9376 0.875Z" fill="#686868"/>
</svg>
