<svg xmlns="http://www.w3.org/2000/svg" display="none">
<symbol id="arrow-right" viewBox="0 0 7 11">
<g>
<path d="M6.5625 5.87305C6.82617 5.60938 6.82617 5.16992 6.5625 4.87695L2.57812 0.892578C2.28516 0.628906 1.8457 0.628906 1.58203 0.892578L0.908203 1.56641C0.644531 1.85938 0.644531 2.29883 0.908203 2.5625L3.75 5.4043L0.908203 8.2168C0.644531 8.48047 0.644531 8.91992 0.908203 9.21289L1.58203 9.85742C1.8457 10.1504 2.28516 10.1504 2.57812 9.85742L6.5625 5.87305Z" />
</g>
</symbol>
<symbol id="arrow-left" viewBox="0 0 9 14">
<g>
<path d="M0.996094 6.90625C0.732422 7.16992 0.732422 7.60938 0.996094 7.87305L6.67969 13.5859C6.97266 13.8496 7.41211 13.8496 7.67578 13.5859L8.34961 12.9121C8.61328 12.6484 8.61328 12.209 8.34961 11.916L3.83789 7.375L8.34961 2.86328C8.61328 2.57031 8.61328 2.13086 8.34961 1.86719L7.67578 1.19336C7.41211 0.929688 6.97266 0.929688 6.67969 1.19336L0.996094 6.90625Z" />
</g>
</symbol>
</svg>